# xmcd
#
# Track frame offsets:
#	150
#	15038
#	28441
#	41433
#	50687
#	64665
#	78622
#	89875
#	103172
#	121554
#	136821
#	147633
#	162392
#	177591
#
# Disc length: 2515 seconds
#
# Revision: 1
# Processed by: cddbd v1.5.2PL0 Copyright (c) Steve Scherf et al.
# Submitted via: audiograbber 1.83.01
#
DISCID=c509d10e
DTITLE=Various Artist - Country Gospel How Great Thou Art
DYEAR=2007
DGENRE=Country Gospel
TTITLE0=Ray Price - How Great Thou Art
TTITLE1=Lacy J. Dalton - Life's Railway To Heaven
TTITLE2=Mark Gray - Jesus Loves Me
TTITLE3=Jim Ed Brown - When The Roll Is Called Up Yonder
TTITLE4=Gatlin Brothers - I'll Fly Away
TTITLE5=Donna Fargo - You Can't Be A Beacon (If Your Light Don't Shine)
TTITLE6=Porter Wagoner - If Jesus Came To Your House
TTITLE7=Lee Greenwood - Amazing Grace
TTITLE8=Deborah Allen - Lean On Me
TTITLE9=Brenda Lee - Softly And Tenderly
TTITLE10=Eddy Raven - Love Lifted Me
TTITLE11=Connie Smith - Jesus Is Your Ticket To Heaven
TTITLE12=Bill Anderson - Will The Circle Be Unbroken
TTITLE13=Mickey Gilley - I Saw The Light
EXTD=
EXTT0=
EXTT1=
EXTT2=
EXTT3=
EXTT4=
EXTT5=
EXTT6=
EXTT7=
EXTT8=
EXTT9=
EXTT10=
EXTT11=
EXTT12=
EXTT13=
PLAYORDER=
